<svg width="180" height="169" viewBox="0 0 180 169" fill="none" xmlns="http://www.w3.org/2000/svg">
<path opacity="0.5" d="M148.463 12.7054L148.467 12.7071C153.178 14.9949 157.388 18.1863 160.857 22.098C164.326 26.0096 166.987 30.5655 168.688 35.5053C170.389 40.4451 171.097 45.6732 170.772 50.8913C170.446 56.1095 169.093 61.2164 166.789 65.9199L166.788 65.9217L160.995 77.7551L122.183 157.025L42.7962 118.454L30.9453 112.696C21.4316 108.074 14.1614 99.8708 10.7267 89.8956C7.29198 79.9204 7.97067 68.9804 12.6218 59.4807C17.2734 49.98 25.518 42.6987 35.5456 39.2459C45.5732 35.7931 56.5528 36.455 66.0676 41.0779L77.9185 46.8357C82.1163 48.8752 87.1729 47.1341 89.2252 42.9425L95.0189 31.1091L95.0198 31.1073C97.3219 26.4027 100.531 22.1931 104.464 18.7202C108.397 15.2472 112.976 12.5794 117.941 10.8698C122.906 9.16035 128.157 8.44304 133.395 8.75836C138.632 9.07369 143.752 10.4154 148.463 12.7054Z" stroke="#C9C8EC" stroke-width="16.9371" stroke-linecap="round" stroke-linejoin="round"/>
</svg>
