<svg width="318" height="36" viewBox="0 0 318 36" fill="none" xmlns="http://www.w3.org/2000/svg">
<path d="M3 32.5L52.5103 7.74486C58.2619 4.86904 65.1764 5.71605 70.0638 9.89516L87.3729 24.6957C92.7808 29.3198 100.592 29.8171 106.543 25.9162L131.878 9.30774C137.627 5.53916 145.14 5.86351 150.543 10.1135L170.233 25.6033C175.501 29.7473 182.793 30.1688 188.503 26.6595L218.195 8.41122C223.555 5.11741 230.347 5.26973 235.553 8.80048L261.621 26.4786C266.992 30.1213 274.032 30.1583 279.442 26.5723L315 3" stroke="#DDDDDD" stroke-width="6" stroke-linecap="round" stroke-linejoin="round"/>
<path d="M3 32.5L52.4357 7.78214C58.225 4.88752 65.1879 5.76599 70.0768 10.0078L86.9091 24.6123C92.2931 29.2837 100.118 29.8301 106.099 25.9523L131.898 9.22571C137.64 5.50242 145.115 5.84404 150.494 10.0756L170.233 25.6033C175.501 29.7473 182.793 30.1688 188.503 26.6595L218.178 8.42215C223.546 5.12276 230.351 5.28163 235.56 8.82796L250.5 19" stroke="#8D89FF" stroke-width="6" stroke-linecap="round" stroke-linejoin="round"/>
<circle cx="252.5" cy="20" r="8" fill="#8D89FF"/>
</svg>
