<svg width="32" height="32" viewBox="0 0 32 32" fill="none" xmlns="http://www.w3.org/2000/svg">
<path d="M15.9999 0.640015C7.51669 0.640015 0.639893 7.51682 0.639893 16C0.639893 24.4832 7.51669 31.36 15.9999 31.36C24.4831 31.36 31.3599 24.4832 31.3599 16C31.3599 7.51682 24.4831 0.640015 15.9999 0.640015ZM22.2479 13.2224C22.2543 13.3536 22.2559 13.4848 22.2559 13.6128C22.2559 17.6128 19.2143 22.2224 13.6495 22.2224C12.0052 22.2251 10.395 21.7529 9.01269 20.8624C9.24789 20.8912 9.48949 20.9024 9.73429 20.9024C11.1519 20.9024 12.4559 20.4208 13.4911 19.608C12.8602 19.5956 12.249 19.3867 11.7425 19.0104C11.236 18.6342 10.8595 18.1092 10.6655 17.5088C11.1185 17.595 11.5853 17.5769 12.0303 17.456C11.3456 17.3176 10.7298 16.9465 10.2874 16.4059C9.84504 15.8652 9.60326 15.1882 9.60309 14.4896V14.4528C10.0111 14.6784 10.4783 14.816 10.9743 14.832C10.3324 14.4047 9.87795 13.7483 9.70396 12.997C9.52998 12.2458 9.64957 11.4564 10.0383 10.7904C10.7982 11.7248 11.7459 12.4892 12.82 13.0341C13.8941 13.579 15.0706 13.8923 16.2735 13.9536C16.1206 13.3045 16.1864 12.6231 16.4607 12.0152C16.735 11.4074 17.2025 10.9072 17.7904 10.5924C18.3783 10.2777 19.0538 10.166 19.7117 10.2747C20.3697 10.3834 20.9733 10.7065 21.4287 11.1936C22.1058 11.0597 22.7551 10.8113 23.3487 10.4592C23.123 11.1602 22.6506 11.7555 22.0191 12.1344C22.6188 12.0622 23.2045 11.9009 23.7567 11.656C23.3511 12.2638 22.8401 12.7943 22.2479 13.2224Z" fill="white"/>
</svg>
